<svg width="20" height="20" viewBox="0 0 20 20" fill="none" xmlns="http://www.w3.org/2000/svg">
<path d="M7.2998 10.9004C8.29392 10.9004 9.09961 11.7061 9.09961 12.7002V17.2002C9.09952 18.1942 8.29386 19 7.2998 19H2.7998C1.80584 18.9999 1.00009 18.1942 1 17.2002V12.7002C1 11.7061 1.80578 10.9005 2.7998 10.9004H7.2998ZM17.2002 10.9004C18.1942 10.9005 19 11.7061 19 12.7002V17.2002C18.9999 18.1942 18.1942 18.9999 17.2002 19H12.7002C11.7061 19 10.9005 18.1942 10.9004 17.2002V12.7002C10.9004 11.7061 11.7061 10.9004 12.7002 10.9004H17.2002ZM7.2998 1C8.29385 1 9.0995 1.80578 9.09961 2.7998V7.2998C9.09961 8.29392 8.29392 9.09961 7.2998 9.09961H2.7998C1.80578 9.0995 1 8.29385 1 7.2998V2.7998C1.00011 1.80585 1.80585 1.00011 2.7998 1H7.2998ZM17.2002 1C18.1942 1.00009 18.9999 1.80584 19 2.7998V7.2998C19 8.29386 18.1942 9.09952 17.2002 9.09961H12.7002C11.7061 9.09961 10.9004 8.29392 10.9004 7.2998V2.7998C10.9005 1.80578 11.7061 1 12.7002 1H17.2002Z" fill="black"/>
</svg>

