<svg width="20" height="20" viewBox="0 0 20 20" fill="none" xmlns="http://www.w3.org/2000/svg">
<path d="M0.997791 2.42099C1.31758 2.15773 1.79023 2.20356 2.05349 2.52335L13.5436 16.4811C13.8068 16.8008 13.761 17.2735 13.4412 17.5368C13.1214 17.8 12.6488 17.7542 12.3855 17.4344L0.895432 3.47671C0.632175 3.15691 0.678002 2.68425 0.997791 2.42099Z" fill="black"/>
<path d="M13.4409 2.42099C13.7607 2.68425 13.8065 3.15691 13.5432 3.47671L2.05316 17.4344C1.78991 17.7542 1.31725 17.8 0.997465 17.5368C0.677676 17.2735 0.631848 16.8008 0.895106 16.4811L12.3852 2.52335C12.6484 2.20355 13.1211 2.15773 13.4409 2.42099Z" fill="black"/>
<path d="M19.2034 16.9765C19.2034 17.3908 18.8676 17.7265 18.4534 17.7265L15.6003 17.7265C14.9538 17.7264 14.5924 16.9806 14.993 16.4732L17.6599 13.0957C17.8915 12.8025 17.8381 12.3765 17.5414 12.1494C17.2482 11.9251 16.8288 11.9805 16.6039 12.2733L16.226 12.7654C15.9737 13.0939 15.5029 13.1557 15.1744 12.9034C14.8459 12.6511 14.7841 12.1803 15.0364 11.8518L15.4143 11.3597C16.1431 10.4107 17.5027 10.231 18.453 10.9582C19.4146 11.6941 19.5876 13.0748 18.8372 14.0252L17.099 16.2265L18.4534 16.2265C18.8676 16.2265 19.2034 16.5623 19.2034 16.9765Z" fill="black"/>
</svg>

