<svg width="20" height="20" viewBox="0 0 20 20" fill="none" xmlns="http://www.w3.org/2000/svg">
<path d="M9.99951 1.8761V6.1701" stroke="#1B1B1B" stroke-width="1.5" stroke-linecap="round"/>
<path d="M16.1377 18.6964C16.69 18.6964 17.1377 18.2487 17.1377 17.6964V11.9535C17.1377 11.4649 16.8998 11.007 16.5 10.7261L11.1495 6.96707C10.4596 6.48239 9.53989 6.48239 8.85002 6.96707L3.49951 10.7261C3.09975 11.007 2.86182 11.4649 2.86182 11.9535V17.6964C2.86182 18.2487 3.30953 18.6964 3.86182 18.6964H7.14458H12.8549H16.1377Z" stroke="#1B1B1B" stroke-width="1.5" stroke-linejoin="round"/>
<path d="M15.2091 4.45238V1.876C15.2091 1.876 14.5579 3.1642 12.6043 1.876C10.6507 0.5878 9.99951 1.876 9.99951 1.876V4.45238C9.99951 4.45238 10.6507 3.1642 12.6043 4.45238C14.5579 5.74058 15.2091 4.45238 15.2091 4.45238Z" stroke="#1B1B1B" stroke-width="1.5" stroke-linecap="round" stroke-linejoin="round"/>
<path d="M7.7334 18.1932V12.611H12.2661V18.1932" stroke="#1B1B1B" stroke-width="1.5" stroke-linecap="round" stroke-linejoin="round"/>
</svg>

