<svg width="20" height="20" viewBox="0 0 20 20" fill="none" xmlns="http://www.w3.org/2000/svg">
<path d="M7.20628 9.62209L9.52088 12.0813L13.415 8.18711C13.7079 7.89421 14.1827 7.8942 14.4756 8.18709C14.7685 8.47997 14.7685 8.95485 14.4757 9.24775L10.1645 13.5591C9.79439 13.9292 9.19157 13.92 8.83284 13.5389L6.11399 10.6501C5.8301 10.3485 5.84448 9.87386 6.14611 9.58997C6.44774 9.30608 6.9224 9.32046 7.20628 9.62209Z" fill="black"/>
<path d="M6.75 1.875C6.75 1.46079 6.41421 1.125 6 1.125C5.58579 1.125 5.25 1.46079 5.25 1.875V2.375H3.5C2.25736 2.375 1.25 3.38236 1.25 4.625V16.625C1.25 17.8676 2.25736 18.875 3.5 18.875H16.5C17.7426 18.875 18.75 17.8676 18.75 16.625V4.625C18.75 3.38236 17.7426 2.375 16.5 2.375H14.75V1.875C14.75 1.46079 14.4142 1.125 14 1.125C13.5858 1.125 13.25 1.46079 13.25 1.875V2.375H6.75V1.875ZM13.25 4.875C13.25 5.28921 13.5858 5.625 14 5.625C14.4142 5.625 14.75 5.28921 14.75 4.875V3.875H16.5C16.9142 3.875 17.25 4.21079 17.25 4.625V16.625C17.25 17.0392 16.9142 17.375 16.5 17.375H3.5C3.08579 17.375 2.75 17.0392 2.75 16.625V4.625C2.75 4.21079 3.08579 3.875 3.5 3.875H5.25V4.875C5.25 5.28921 5.58579 5.625 6 5.625C6.41421 5.625 6.75 5.28921 6.75 4.875V3.875H13.25V4.875Z" fill="black"/>
</svg>

